<mxfile host="www.draw.io" modified="2019-12-16T06:31:25.683Z" agent="Mozilla/5.0 (Windows NT 10.0; WOW64) AppleWebKit/537.36 (KHTML, like Gecko) Chrome/78.0.3904.108 Safari/537.36" etag="8D-nbpZIFCTs9W3kH1hh" version="12.4.2" type="github" pages="1">
  <diagram id="Zm2mKGomABfydaSqqEx8" name="Page-1">
    <mxGraphModel dx="854" dy="436" grid="1" gridSize="10" guides="1" tooltips="1" connect="1" arrows="1" fold="1" page="1" pageScale="1" pageWidth="850" pageHeight="1100" math="0" shadow="0">
      <root>
        <mxCell id="0"/>
        <mxCell id="1" parent="0"/>
        <mxCell id="qn2icyFKdlIVdU8Ni0lh-1" value="Main Page" style="rounded=1;whiteSpace=wrap;html=1;" vertex="1" parent="1">
          <mxGeometry x="365" y="40" width="120" height="60" as="geometry"/>
        </mxCell>
      </root>
    </mxGraphModel>
  </diagram>
</mxfile>
